<svg width="24" height="25" viewBox="0 0 24 25" fill="none" xmlns="http://www.w3.org/2000/svg">
<g clip-path="url(#clip0_1_6623)">
<path d="M23 1.50977C16.3082 1.50977 13.2777 2.86872 11.9998 3.77586C10.7213 2.86922 7.69034 1.50977 0.999979 1.50977C0.447991 1.50977 0 1.95907 0 2.51268V14.7282V17.9125C0 18.4661 0.447991 18.9154 0.999979 18.9154C9.30781 18.9154 11.0953 21.9989 11.1023 22.0104C11.2668 22.3464 11.6098 22.552 11.9828 22.5605C11.9903 22.5605 11.9973 22.5605 12.0043 22.5605C12.3692 22.5605 12.7117 22.3514 12.8877 22.0295C12.9047 21.9984 14.6882 18.9154 23 18.9154C23.552 18.9154 24 18.4661 24 17.9125V14.7282V2.51268C24 1.95907 23.552 1.50977 23 1.50977ZM2.00046 3.52613C8.11596 3.66209 10.3733 5.0265 10.9998 5.52846V15.4062C10.9008 15.3575 10.7963 15.3084 10.6873 15.2593C10.6748 15.2537 10.6603 15.2477 10.6478 15.2422C10.5318 15.1906 10.4098 15.1394 10.2823 15.0883C10.2388 15.0707 10.1938 15.0537 10.1493 15.0361C10.0408 14.994 9.92729 14.9524 9.8103 14.9107C9.7648 14.8947 9.7203 14.8782 9.6733 14.8621C9.5118 14.8069 9.34431 14.7518 9.16681 14.6986C9.14131 14.6911 9.11381 14.6836 9.08831 14.6761C8.93381 14.6304 8.77282 14.5853 8.60632 14.5417C8.54382 14.5251 8.47982 14.5091 8.41582 14.493C8.27033 14.4564 8.11983 14.4208 7.96483 14.3857C7.90134 14.3712 7.83934 14.3566 7.77434 14.3426C7.55884 14.296 7.33635 14.2508 7.10285 14.2082C7.06285 14.2007 7.01935 14.1942 6.97886 14.1871C6.78036 14.152 6.57586 14.1184 6.36437 14.0863C6.28137 14.0738 6.19637 14.0618 6.11137 14.0497C5.92088 14.0227 5.72488 13.9976 5.52389 13.9735C5.44339 13.964 5.36439 13.954 5.28239 13.9444C5.0044 13.9133 4.7179 13.8848 4.41991 13.8597C4.36541 13.8552 4.30791 13.8517 4.25291 13.8472C4.00142 13.8271 3.74242 13.8095 3.47693 13.7945C3.37443 13.7885 3.26993 13.7835 3.16543 13.7785C2.91944 13.7664 2.66694 13.7564 2.40845 13.7484C2.31345 13.7454 2.22045 13.7418 2.12346 13.7393C2.08146 13.7383 2.04246 13.7363 2.00046 13.7353V3.52613ZM21.9995 16.9266C16.0652 17.0961 13.2537 18.7905 11.9993 19.9855C10.7443 18.791 7.93133 17.0961 1.99996 16.9241V15.7437C2.09346 15.7457 2.18695 15.7482 2.27895 15.7507C2.37645 15.7537 2.47495 15.7562 2.57095 15.7597C2.70544 15.7647 2.83594 15.7708 2.96644 15.7768C3.05844 15.7808 3.15143 15.7848 3.24143 15.7898C3.36993 15.7968 3.49493 15.8048 3.61942 15.8129C3.70592 15.8184 3.79342 15.8234 3.87792 15.8294C4.00142 15.8384 4.12041 15.8485 4.23991 15.858C4.32041 15.8645 4.40291 15.871 4.48141 15.8781C4.5994 15.8886 4.7134 15.9006 4.8279 15.9122C4.9029 15.9197 4.9799 15.9272 5.0529 15.9352C5.17089 15.9483 5.28389 15.9623 5.39789 15.9763C5.46189 15.9844 5.52838 15.9914 5.59138 15.9999C5.72188 16.017 5.84788 16.035 5.97288 16.0536C6.01437 16.0596 6.05787 16.0651 6.09887 16.0716C6.42887 16.1218 6.73836 16.1759 7.02935 16.2331C7.07385 16.2416 7.11535 16.2511 7.15885 16.2602C7.25685 16.2802 7.35535 16.3003 7.44935 16.3209C7.50484 16.3329 7.55684 16.3459 7.61084 16.358C7.68884 16.376 7.76734 16.3936 7.84184 16.4121C7.89934 16.4262 7.95333 16.4407 8.00933 16.4547C8.07633 16.4718 8.14383 16.4888 8.20833 16.5064C8.26333 16.5214 8.31583 16.5365 8.36933 16.5515C8.43032 16.5686 8.49182 16.5861 8.55032 16.6037C8.60182 16.6192 8.65082 16.6343 8.70032 16.6498C8.75632 16.6674 8.81282 16.6849 8.86682 16.7025C8.91481 16.718 8.96031 16.7336 9.00631 16.7496C9.05781 16.7671 9.10981 16.7847 9.15931 16.8023C9.20331 16.8178 9.24531 16.8333 9.28781 16.8494C9.33531 16.8669 9.3828 16.8845 9.4283 16.902C9.4688 16.9176 9.5078 16.9331 9.5463 16.9487C9.5898 16.9662 9.6328 16.9833 9.6738 17.0008C9.7113 17.0164 9.7473 17.0319 9.7828 17.0475C9.8218 17.0645 9.8608 17.0816 9.89779 17.0986C9.93129 17.1137 9.96379 17.1287 9.99579 17.1437C10.0318 17.1608 10.0673 17.1773 10.1013 17.1944C10.1318 17.2094 10.1613 17.224 10.1903 17.2385C10.2218 17.2546 10.2528 17.2706 10.2828 17.2862C10.3108 17.3007 10.3378 17.3152 10.3638 17.3298C10.3918 17.3453 10.4193 17.3604 10.4453 17.3754C10.4698 17.3895 10.4943 17.4035 10.5178 17.417C10.5428 17.4316 10.5668 17.4461 10.5903 17.4602C10.6118 17.4732 10.6333 17.4862 10.6538 17.4993C10.6753 17.5128 10.6958 17.5264 10.7163 17.5394C10.7353 17.5519 10.7548 17.5645 10.7723 17.5765C10.7908 17.589 10.8083 17.6011 10.8258 17.6131C10.8418 17.6241 10.8578 17.6357 10.8728 17.6462C10.8898 17.6582 10.9053 17.6698 10.9208 17.6813C10.9333 17.6908 10.9463 17.7004 10.9578 17.7094C10.9723 17.7204 10.9848 17.7304 10.9978 17.741C11.0078 17.749 11.0188 17.7575 11.0283 17.7656C11.0398 17.7751 11.0498 17.7836 11.0598 17.7921C11.0678 17.7991 11.0768 17.8067 11.0843 17.8132C11.0923 17.8202 11.0988 17.8262 11.1058 17.8327C11.1128 17.8393 11.1203 17.8458 11.1263 17.8513C11.1328 17.8573 11.1373 17.8618 11.1423 17.8668C11.1463 17.8709 11.1513 17.8759 11.1548 17.8789C11.1598 17.8839 11.1633 17.8874 11.1668 17.8909C11.1673 17.8914 11.1683 17.8924 11.1688 17.8934C11.2533 18.0263 11.3693 18.1316 11.5068 18.2119C11.5313 18.2269 11.5573 18.2379 11.5828 18.251C11.6203 18.2685 11.6523 18.2946 11.6923 18.3071C11.7058 18.3111 11.7198 18.3096 11.7333 18.3136C11.8063 18.3352 11.8823 18.3462 11.9598 18.3487C11.9733 18.3492 11.9873 18.3553 12.0008 18.3553C12.3157 18.3553 12.6137 18.2073 12.8012 17.9345C12.8027 17.9325 12.8177 17.915 12.8472 17.8864C12.8497 17.8839 12.8517 17.8819 12.8547 17.8789C12.8627 17.8714 12.8727 17.8618 12.8827 17.8528C12.8877 17.8483 12.8917 17.8443 12.8972 17.8398C12.9077 17.8302 12.9202 17.8197 12.9322 17.8092C12.9392 17.8032 12.9452 17.7976 12.9527 17.7911C12.9657 17.7801 12.9812 17.7681 12.9962 17.7555C13.0052 17.7485 13.0132 17.7415 13.0227 17.734C13.0382 17.7219 13.0552 17.7089 13.0727 17.6959C13.0847 17.6868 13.0962 17.6778 13.1087 17.6688C13.1262 17.6557 13.1457 17.6422 13.1652 17.6282C13.1797 17.6181 13.1937 17.6081 13.2092 17.5971C13.2302 17.5825 13.2527 17.5675 13.2757 17.5524C13.2922 17.5414 13.3087 17.5304 13.3267 17.5193C13.3502 17.5043 13.3757 17.4887 13.4012 17.4732C13.4217 17.4607 13.4422 17.4481 13.4637 17.4351C13.4897 17.4195 13.5167 17.404 13.5442 17.3885C13.5682 17.3749 13.5922 17.3614 13.6172 17.3473C13.6467 17.3313 13.6772 17.3147 13.7082 17.2982C13.7342 17.2842 13.7612 17.2701 13.7887 17.2561C13.8217 17.239 13.8562 17.222 13.8912 17.2044C13.9207 17.1899 13.9517 17.1753 13.9827 17.1603C14.0187 17.1432 14.0552 17.1262 14.0927 17.1086C14.1267 17.0931 14.1622 17.0776 14.1977 17.062C14.2367 17.045 14.2762 17.0279 14.3167 17.0104C14.3537 16.9948 14.3927 16.9788 14.4317 16.9632C14.4747 16.9457 14.5182 16.9281 14.5632 16.9106C14.6042 16.8945 14.6472 16.8785 14.6902 16.8624C14.7367 16.8449 14.7832 16.8278 14.8312 16.8103C14.8772 16.7937 14.9252 16.7777 14.9732 16.7611C15.0227 16.7441 15.0712 16.727 15.1227 16.7105C15.1737 16.6939 15.2272 16.6769 15.2802 16.6603C15.3327 16.6438 15.3847 16.6272 15.4392 16.6112C15.4952 16.5946 15.5537 16.5781 15.6117 16.5616C15.6677 16.5455 15.7227 16.5295 15.7812 16.5134C15.8417 16.4969 15.9052 16.4808 15.9677 16.4648C16.0277 16.4492 16.0867 16.4337 16.1487 16.4181C16.2167 16.4016 16.2882 16.385 16.3587 16.3685C16.4192 16.3544 16.4787 16.3399 16.5412 16.3259C16.6212 16.3083 16.7057 16.2913 16.7887 16.2737C16.8466 16.2617 16.9026 16.2491 16.9626 16.2376C17.0821 16.214 17.2061 16.1915 17.3316 16.1689C17.3586 16.1639 17.3836 16.1589 17.4106 16.1544C17.5651 16.1273 17.7251 16.1012 17.8896 16.0761C17.9356 16.0691 17.9851 16.0626 18.0321 16.0561C18.1526 16.0385 18.2731 16.021 18.3991 16.0044C18.4606 15.9964 18.5261 15.9889 18.5891 15.9814C18.7046 15.9668 18.8201 15.9528 18.9401 15.9392C19.0101 15.9317 19.0836 15.9247 19.1551 15.9172C19.2731 15.9051 19.3906 15.8926 19.5126 15.8816C19.5906 15.8746 19.6721 15.8685 19.7516 15.8615C19.8716 15.8515 19.9911 15.8415 20.1151 15.8324C20.2001 15.8264 20.2886 15.8209 20.3756 15.8154C20.5006 15.8074 20.6256 15.7993 20.7546 15.7923C20.8451 15.7873 20.9381 15.7833 21.0306 15.7793C21.1606 15.7733 21.2901 15.7672 21.4241 15.7622C21.5221 15.7587 21.6226 15.7562 21.722 15.7532C21.8135 15.7507 21.906 15.7482 21.9995 15.7462V16.9266ZM21.8775 13.7398C21.7795 13.7423 21.685 13.7459 21.5886 13.7489C21.3301 13.7569 21.0771 13.7669 20.8311 13.779C20.7286 13.784 20.6266 13.789 20.5266 13.795C20.2501 13.811 19.9816 13.8291 19.7206 13.8497C19.6761 13.8532 19.6296 13.8562 19.5856 13.8597C19.2826 13.8853 18.9916 13.9143 18.7091 13.9454C18.6351 13.9535 18.5636 13.963 18.4911 13.9715C18.2791 13.9966 18.0726 14.0237 17.8721 14.0517C17.7961 14.0623 17.7206 14.0733 17.6461 14.0843C17.4176 14.1189 17.1956 14.1551 16.9821 14.1932C16.9561 14.1977 16.9286 14.2017 16.9031 14.2067C16.6637 14.2503 16.4357 14.2965 16.2152 14.3441C16.1592 14.3561 16.1062 14.3687 16.0517 14.3807C15.8852 14.4183 15.7242 14.4564 15.5682 14.496C15.5127 14.5101 15.4567 14.5241 15.4022 14.5387C15.2202 14.5868 15.0442 14.6354 14.8767 14.6856C14.8642 14.6896 14.8502 14.6931 14.8377 14.6966C14.6557 14.7513 14.4842 14.8074 14.3192 14.8641C14.2782 14.8782 14.2392 14.8927 14.1992 14.9067C14.0747 14.9509 13.9552 14.995 13.8402 15.0396C13.8007 15.0552 13.7607 15.0702 13.7222 15.0858C13.5867 15.1399 13.4567 15.1946 13.3342 15.2492C13.3277 15.2522 13.3202 15.2552 13.3137 15.2583C13.2037 15.3074 13.0987 15.357 12.9992 15.4062V5.51542C13.5892 5.03602 15.8142 3.66102 21.999 3.52613V13.7358H21.9995C21.958 13.7368 21.919 13.7388 21.8775 13.7398Z" fill="white"/>
<path d="M20.3117 4.31355C20.1982 4.30301 19.1712 4.21827 17.7917 4.62194C17.2612 4.77739 16.9572 5.33401 17.1122 5.86556C17.2667 6.39761 17.8217 6.703 18.3522 6.54754C18.6707 6.45427 18.9632 6.3961 19.2152 6.3605V7.36141C19.2152 7.91502 19.6632 8.36433 20.2152 8.36433C20.7672 8.36433 21.2151 7.91502 21.2151 7.36141V5.31195C21.2151 4.79545 20.8242 4.36369 20.3117 4.31355Z" fill="white"/>
</g>
<defs>
<clipPath id="clip0_1_6623">
<rect width="24" height="24.0705" fill="white"/>
</clipPath>
</defs>
</svg>
