<svg width="24" height="25" viewBox="0 0 24 25" fill="none" xmlns="http://www.w3.org/2000/svg">
<path d="M20 7.02051H4C2.89543 7.02051 2 7.91857 2 9.02638V19.0558C2 20.1636 2.89543 21.0616 4 21.0616H20C21.1046 21.0616 22 20.1636 22 19.0558V9.02638C22 7.91857 21.1046 7.02051 20 7.02051Z" stroke="white" stroke-width="2" stroke-linecap="round" stroke-linejoin="round"/>
<path d="M16 21.0617V5.01467C16 4.48267 15.7893 3.97247 15.4142 3.5963C15.0391 3.22012 14.5304 3.00879 14 3.00879H10C9.46957 3.00879 8.96086 3.22012 8.58579 3.5963C8.21071 3.97247 8 4.48267 8 5.01467V21.0617" stroke="white" stroke-width="2" stroke-linecap="round" stroke-linejoin="round"/>
</svg>
