<svg width="22" height="23" viewBox="0 0 22 23" fill="none" xmlns="http://www.w3.org/2000/svg">
<g clip-path="url(#clip0_1_6628)">
<path d="M21.2143 5.0352H17V0.808546C17 0.373317 16.6482 0.0205078 16.2143 0.0205078H0.785729C0.351776 0.0205078 0 0.373317 0 0.808546V18.933C0 20.6739 1.4071 22.0851 3.14287 22.0851H18.8571C20.5929 22.0851 22 20.6739 22 18.933V5.82319C22 5.38801 21.6482 5.0352 21.2143 5.0352ZM3.14287 20.091C2.27501 20.091 2 19.8035 2 18.933V2.02638H15V10.2337V18.4142C15.0019 18.6042 15.0211 18.7936 15.0574 18.98C15.0652 19.025 15.0738 19.0691 15.0841 19.1132C15.1229 19.2917 15.177 19.4665 15.2459 19.6357C15.2459 19.6435 15.2538 19.6506 15.2569 19.6577C15.3053 19.7718 15.4384 19.9836 15.5 20.091H3.14287ZM20 18.5749C20 19.4453 19.3679 20.0793 18.5 20.0793C17.6321 20.0793 17 19.4453 17 18.5749C17 17.7045 17 7.04108 17 7.04108H20C20 7.04108 20 17.7045 20 18.5749Z" fill="white"/>
<path d="M11.125 5.03516H5.87501C5.39175 5.03516 5 5.48418 5 6.03809C5 6.59201 5.39175 7.04103 5.87501 7.04103H11.125C11.6083 7.04103 12 6.59201 12 6.03809C12 5.48418 11.6083 5.03516 11.125 5.03516Z" fill="white"/>
<path d="M13.2143 8.04394H3.78573C3.35178 8.04394 3 8.49297 3 9.04688C3 9.6008 3.35178 10.0498 3.78573 10.0498H13.2143C13.6482 10.0498 14 9.6008 14 9.04688C14 8.49297 13.6482 8.04394 13.2143 8.04394Z" fill="white"/>
<path d="M13.2143 11.0527H3.78573C3.35178 11.0527 3 11.5018 3 12.0557C3 12.6096 3.35178 13.0586 3.78573 13.0586H13.2143C13.6482 13.0586 14 12.6096 14 12.0557C14 11.5018 13.6482 11.0527 13.2143 11.0527Z" fill="white"/>
<path d="M13.2143 14.0618H3.78573C3.35178 14.0618 3 14.5108 3 15.0647C3 15.6186 3.35178 16.0676 3.78573 16.0676H13.2143C13.6482 16.0676 14 15.6186 14 15.0647C14 14.5108 13.6482 14.0618 13.2143 14.0618Z" fill="white"/>
</g>
<defs>
<clipPath id="clip0_1_6628">
<rect width="22" height="22.0646" fill="white" transform="translate(0 0.0205078)"/>
</clipPath>
</defs>
</svg>
