<svg width="26" height="31" viewBox="0 0 26 31" fill="none" xmlns="http://www.w3.org/2000/svg">
<g filter="url(#filter0_d_1_6649)">
<path d="M21 21.0618V19.0559C21 17.992 20.5786 16.9716 19.8284 16.2192C19.0783 15.4669 18.0609 15.0442 17 15.0442H9C7.93913 15.0442 6.92172 15.4669 6.17157 16.2192C5.42143 16.9716 5 17.992 5 19.0559V21.0618" stroke="white" stroke-width="2" stroke-linecap="round" stroke-linejoin="round"/>
<path d="M13 11.0323C15.2091 11.0323 17 9.23617 17 7.02054C17 4.80491 15.2091 3.00879 13 3.00879C10.7909 3.00879 9 4.80491 9 7.02054C9 9.23617 10.7909 11.0323 13 11.0323Z" stroke="white" stroke-width="2" stroke-linecap="round" stroke-linejoin="round"/>
</g>
<defs>
<filter id="filter0_d_1_6649" x="0" y="0" width="26" height="32.0706" filterUnits="userSpaceOnUse" color-interpolation-filters="sRGB">
<feFlood flood-opacity="0" result="BackgroundImageFix"/>
<feColorMatrix in="SourceAlpha" type="matrix" values="0 0 0 0 0 0 0 0 0 0 0 0 0 0 0 0 0 0 127 0" result="hardAlpha"/>
<feOffset dy="4"/>
<feGaussianBlur stdDeviation="2"/>
<feComposite in2="hardAlpha" operator="out"/>
<feColorMatrix type="matrix" values="0 0 0 0 0 0 0 0 0 0 0 0 0 0 0 0 0 0 0.25 0"/>
<feBlend mode="normal" in2="BackgroundImageFix" result="effect1_dropShadow_1_6649"/>
<feBlend mode="normal" in="SourceGraphic" in2="effect1_dropShadow_1_6649" result="shape"/>
</filter>
</defs>
</svg>
